<svg xmlns="http://www.w3.org/2000/svg" width="173" height="140" viewBox="0 0 173 140">
  <g id="Сгруппировать_5" data-name="Сгруппировать 5" transform="translate(-1354 -496)">
    <rect id="Прямоугольник_7" data-name="Прямоугольник 7" width="173" height="140" rx="13" transform="translate(1354 496)" fill="#76a5af"/>
    <path id="Icon_awesome-list-ul" data-name="Icon awesome-list-ul" d="M10.933,3.375A10.933,10.933,0,1,0,21.866,14.308,10.933,10.933,0,0,0,10.933,3.375Zm0,36.444A10.933,10.933,0,1,0,21.866,50.752,10.933,10.933,0,0,0,10.933,39.819Zm0,36.444A10.933,10.933,0,1,0,21.866,87.2,10.933,10.933,0,0,0,10.933,76.263Zm102.043,3.644H40.088a3.644,3.644,0,0,0-3.644,3.644V90.84a3.644,3.644,0,0,0,3.644,3.644h72.888a3.644,3.644,0,0,0,3.644-3.644V83.551A3.644,3.644,0,0,0,112.976,79.907Zm0-72.888H40.088a3.644,3.644,0,0,0-3.644,3.644v7.289A3.644,3.644,0,0,0,40.088,21.6h72.888a3.644,3.644,0,0,0,3.644-3.644V10.664A3.644,3.644,0,0,0,112.976,7.019Zm0,36.444H40.088a3.644,3.644,0,0,0-3.644,3.644V54.4a3.644,3.644,0,0,0,3.644,3.644h72.888A3.644,3.644,0,0,0,116.62,54.4V47.108A3.644,3.644,0,0,0,112.976,43.463Z" transform="translate(1382.075 515.436)" fill="#134f5c"/>
    <path id="Icon_awesome-hand-pointer" data-name="Icon awesome-hand-pointer" d="M22.676,12.148v4.859a2.024,2.024,0,0,1-.054.464L21,24.355a2.025,2.025,0,0,1-1.971,1.561H8.5a2.025,2.025,0,0,1-1.637-.834L.387,16.173a2.025,2.025,0,1,1,3.275-2.382l1.6,2.2V2.025a2.025,2.025,0,0,1,4.049,0V12.148h.4V10.123a2.025,2.025,0,0,1,4.049,0v2.025h.4V10.933a2.025,2.025,0,0,1,4.049,0v1.215h.4a2.025,2.025,0,1,1,4.049,0ZM9.718,16.2h-.4v4.859h.4Zm4.454,0h-.4v4.859h.4Zm4.454,0h-.4v4.859h.4Z" transform="translate(1460.902 566.188)" fill="#fff"/>
  </g>
</svg>
